<svg xmlns="http://www.w3.org/2000/svg" width="480" height="360" viewBox="0 0 480 360">
  <defs>
    <linearGradient id="rackGradient" x1="0" x2="1" y1="0" y2="1">
      <stop offset="0%" stop-color="#1d4ed8"/>
      <stop offset="100%" stop-color="#0ea5e9"/>
    </linearGradient>
    <linearGradient id="boxGradient" x1="0" x2="1" y1="0" y2="0">
      <stop offset="0%" stop-color="#f97316"/>
      <stop offset="100%" stop-color="#facc15"/>
    </linearGradient>
  </defs>
  <rect width="480" height="360" rx="32" fill="url(#rackGradient)" opacity="0.12"/>
  <g fill="none" stroke="#1d4ed8" stroke-width="10" stroke-linecap="round" stroke-linejoin="round" opacity="0.65">
    <path d="M60 60v240M180 60v240M300 60v240M420 60v240"/>
    <path d="M40 100h400M40 180h400M40 260h400"/>
  </g>
  <g fill="url(#boxGradient)" opacity="0.75">
    <rect x="70" y="70" width="90" height="50" rx="8"/>
    <rect x="310" y="150" width="90" height="50" rx="8"/>
    <rect x="190" y="230" width="90" height="50" rx="8"/>
  </g>
  <g fill="#fde68a" opacity="0.6">
    <rect x="200" y="90" width="80" height="40" rx="6"/>
    <rect x="90" y="210" width="80" height="40" rx="6"/>
    <rect x="320" y="230" width="80" height="40" rx="6"/>
  </g>
</svg>
